<svg id="Capa_1" enable-background="new 0 0 511.393 511.393" height="512" viewBox="0 0 511.393 511.393" width="512"
     xmlns="http://www.w3.org/2000/svg">
    <linearGradient id="SVGID_1_" gradientUnits="userSpaceOnUse" x1="255" x2="255" y1="73.799" y2="384.799">
        <stop offset=".00000083866" stop-color="#96d1f3"/>
        <stop offset="1" stop-color="#ccfff4"/>
    </linearGradient>
    <linearGradient id="SVGID_2_" gradientUnits="userSpaceOnUse" x1="255.696" x2="255.696" y1="66.094" y2="445.299">
        <stop offset="0" stop-color="#174fa3"/>
        <stop offset="1" stop-color="#b044af"/>
    </linearGradient>
    <g id="Filled_37_">
        <path d="m363.5 73.799 98 62 16 137-91-14-27 129 17 15v35h-93l-25-92h-73l-22 45 16 12v35h-94l-29-242 61-64 127-12z"
              fill="#fff"/>
        <path d="m56.5 195.799 6 43-25 13.182v57.818l-30-20v-55zm359 68 3 96 75 25 9-34-40.236-17.665 15.236-60.335zm-52-190-107 10-31 88 31 82 77 34 53-29z"
              fill="url(#SVGID_1_)"/>
        <path d="m471.089 328.818 14.02-55.52-16.575-141.924-103.186-65.28-114.327 10.684-12.707 36.072-124.31 11.746-62.578 65.656-51.426 40.931v62.63l45 30v-67.307l10.554-5.565 23.291 194.358h108.155v-46.25l-14.038-10.528 17.219-35.222h62.585l24.999 92h106.235v-45.885l-16.265-14.352 24.649-117.771 15.797 2.431 2.985 95.537 87.539 29.18 12.687-47.928zm-2.181-64.929-75.665-11.64-20.343-163.628 81.566 51.603zm-206.929-173.07 94.977-8.876 21.474 172.723-45.283 24.777-70.741-31.236-28.92-76.499zm-140.983 48.183 111.828-10.566-15.308 43.454 33.08 87.501 38.328 16.924-34.813 61.984h-65.168l-122.328-142.242zm-90.996 156.783-15-10v-13.462l15-7.909zm-15-40.42v-16.95l35.653-28.377 2.99 24.951zm157 174.934h-59.522l50.564-30.468 8.958 6.718zm-14.266-44.782-66.167 39.87-24.689-206.018 109.714 127.574zm211.266 20.667v24.115h-60.454l50.289-33.084zm-16.207-22.95-64.769 42.611-21.481-79.05 36.166-64.393 31.146 13.753 41.971-22.966zm70.468-111.192 44.948 6.916-20.847 82.556-21.529-7.176zm65.033 103.115-26.663-8.887 5.734-22.706 26.242 11.521zm-67.294-198.358v-16h15v16z"
              fill="url(#SVGID_2_)"/>
    </g>
</svg>